<svg xmlns="http://www.w3.org/2000/svg" width="256" height="256" viewBox="0 0 100 100"><path fill="#fff" d="M37.57 41.79L37.57 41.79Q37.57 44.45 36.30 46.71Q35.03 48.98 32.05 50.22L32.05 50.22Q35.59 51.40 37.32 53.91Q39.06 56.42 39.06 59.58L39.06 59.58Q39.06 65.22 35.00 67.95Q30.93 70.68 23.43 70.68L23.43 70.68Q20.83 70.68 18.38 70.46Q15.93 70.24 13.70 69.62L13.70 69.62Q11.09 68.88 11.09 66.77L11.09 66.77L11.09 35.03Q11.09 33.23 13.14 32.67L13.14 32.67Q15.25 32.05 17.61 31.83Q19.96 31.62 22.75 31.62L22.75 31.62Q29.76 31.62 33.66 34.10Q37.57 36.58 37.57 41.79ZM24.49 52.45L16.05 52.45L16.05 65.84Q17.54 66.15 19.50 66.34Q21.45 66.52 23.43 66.52L23.43 66.52Q28.58 66.52 31.24 64.82Q33.91 63.11 33.91 59.46L33.91 59.46Q33.91 56.23 31.52 54.34Q29.14 52.45 24.49 52.45L24.49 52.45ZM16.05 36.33L16.05 48.36L24.49 48.36Q28.39 48.36 30.41 46.62Q32.42 44.89 32.42 41.91L32.42 41.91Q32.42 35.77 22.75 35.77L22.75 35.77Q20.58 35.77 19 35.93Q17.42 36.08 16.05 36.33L16.05 36.33ZM52.63 43.34L52.63 69.87Q52.32 70.00 51.70 70.15Q51.08 70.31 50.34 70.31L50.34 70.31Q47.67 70.31 47.67 68.07L47.67 68.07L47.67 41.48Q47.98 41.35 48.64 41.20Q49.29 41.04 50.03 41.04L50.03 41.04Q52.63 41.04 52.63 43.34L52.63 43.34ZM46.93 32.30L46.93 32.30Q46.93 31.00 47.83 30.10Q48.73 29.20 50.15 29.20L50.15 29.20Q51.58 29.20 52.45 30.10Q53.32 31.00 53.32 32.30L53.32 32.30Q53.32 33.60 52.45 34.50Q51.58 35.40 50.15 35.40L50.15 35.40Q48.73 35.40 47.83 34.50Q46.93 33.60 46.93 32.30ZM88.91 55.67L88.91 55.67Q88.91 59.15 87.91 61.94Q86.92 64.73 85.09 66.71Q83.26 68.69 80.66 69.75Q78.05 70.80 74.83 70.80L74.83 70.80Q71.61 70.80 69.00 69.75Q66.40 68.69 64.54 66.71Q62.68 64.73 61.69 61.94Q60.69 59.15 60.69 55.67L60.69 55.67Q60.69 52.20 61.72 49.41Q62.74 46.62 64.60 44.64Q66.46 42.65 69.06 41.60Q71.67 40.55 74.83 40.55L74.83 40.55Q77.99 40.55 80.60 41.60Q83.20 42.65 85.03 44.64Q86.86 46.62 87.88 49.41Q88.91 52.20 88.91 55.67ZM74.83 44.64L74.83 44.64Q70.61 44.64 68.20 47.55Q65.78 50.47 65.78 55.67L65.78 55.67Q65.78 60.94 68.17 63.83Q70.55 66.71 74.83 66.71L74.83 66.71Q79.11 66.71 81.47 63.80Q83.82 60.88 83.82 55.67L83.82 55.67Q83.82 50.47 81.43 47.55Q79.05 44.64 74.83 44.64Z"></path></svg>